<?xml version="1.0" standalone="no"?>
<!DOCTYPE svg PUBLIC "-//W3C//DTD SVG 20010904//EN"
 "http://www.w3.org/TR/2001/REC-SVG-20010904/DTD/svg10.dtd">
<svg version="1.0" xmlns="http://www.w3.org/2000/svg"
 width="151.000000pt" height="67.000000pt" viewBox="0 0 151.000000 67.000000"
 preserveAspectRatio="xMidYMid meet">

<g transform="translate(0.000000,67.000000) scale(0.100000,-0.100000)"
fill="#000000" stroke="none">
<path d="M418 559 c-28 -16 -23 -67 7 -81 21 -9 28 -8 45 7 25 23 26 47 2 68
-21 19 -30 20 -54 6z"/>
<path d="M95 502 c-11 -12 -3 -58 30 -180 59 -209 50 -192 100 -192 23 0 47 6
52 13 11 13 93 314 93 339 0 18 -30 29 -59 21 -21 -5 -22 -10 -57 -185 -9 -49
-20 -88 -23 -88 -4 0 -20 61 -35 135 -16 74 -32 136 -35 137 -17 4 -61 4 -66
0z"/>
<path d="M813 484 c-7 -3 -13 -17 -13 -31 0 -16 -7 -27 -20 -30 -14 -4 -20
-14 -20 -33 0 -19 6 -29 20 -33 18 -5 20 -14 20 -90 0 -107 18 -137 83 -137
53 0 71 11 63 38 -4 13 -17 22 -34 24 -27 3 -27 4 -30 86 -3 81 -2 82 21 82
17 0 27 7 31 23 9 35 8 37 -23 37 -26 0 -30 4 -33 33 -2 26 -8 32 -28 34 -14
1 -31 -1 -37 -3z"/>
<path d="M614 420 c-30 -12 -71 -64 -79 -101 -13 -56 4 -120 40 -156 28 -28
40 -33 79 -33 43 0 96 16 96 29 0 4 -7 17 -16 29 -12 18 -19 20 -36 11 -35
-19 -66 -3 -78 40 -21 80 18 145 74 120 23 -11 28 -10 41 7 21 28 19 33 -20
50 -38 16 -69 17 -101 4z"/>
<path d="M1031 413 c-60 -30 -89 -132 -57 -207 20 -49 61 -76 113 -76 88 0
133 51 133 152 0 66 -27 114 -75 134 -44 18 -72 17 -114 -3z m99 -74 c11 -20
13 -82 4 -117 -8 -30 -50 -40 -72 -18 -12 12 -17 34 -17 72 0 46 4 59 23 74
25 21 47 17 62 -11z"/>
<path d="M1375 406 c-23 -23 -24 -24 -30 -5 -5 16 -14 19 -38 17 l-32 -3 -3
-120 c-4 -155 -1 -165 42 -165 l34 0 4 91 c4 81 7 94 27 110 13 11 32 19 42
19 15 0 19 7 19 40 0 34 -3 40 -20 40 -12 0 -32 -11 -45 -24z"/>
<path d="M404 407 c-2 -7 -3 -71 -2 -143 l3 -129 35 0 35 0 3 143 3 142 -36 0
c-20 0 -38 -6 -41 -13z"/>
</g>
</svg>
